<svg version="1.1" id="Layer_1" xmlns="http://www.w3.org/2000/svg" xmlns:xlink="http://www.w3.org/1999/xlink" x="0px" y="0px"
	 viewBox="0 0 989.5 1102.5" style="enable-background:new 0 0 989.5 1102.5;" xml:space="preserve">
<style type="text/css">
	.st0{fill:url(#SVGID_1_);}
	.st1{fill:#FFFFFF;}
</style>
<g transform="scale(8.11041548093341) translate(10, 10)">
	<g id="SvgjsG20559" transform="matrix(0.25879534907967466,0,0,0.25879534907967466,-23.835051255347672,-8.281378609445168)">
		<g>
			
				<linearGradient id="SVGID_1_" gradientUnits="userSpaceOnUse" x1="348.9278" y1="512.9139" x2="349.9278" y2="512.9139" gradientTransform="matrix(747.012 0 0 -940.3247 -260561.125 482561.6562)">
				<stop  offset="0" style="stop-color:#147D6C"/>
				<stop  offset="1" style="stop-color:#1EFFFF"/>
			</linearGradient>
			<path class="st0" d="M101.2,77c-3.4-0.9-6.5-2.6-9.1-4.9c4.7-2,10-2.3,14.9-0.8c3.4,0.9,6.5,2.6,9.1,4.9
				C111.4,78.1,106.1,78.4,101.2,77z M92.9,33.2c2,8.5,8.6,15.2,17.1,17.5C108,42.1,101.4,35.4,92.9,33.2z M114.8,123.7
				c3.5,3.1,7.9,5.1,12.6,5.6c0.9-0.6,1.8-1,2.8-1.2l7.2-1.4c-2.3-1.8-4.9-3.1-7.7-3.8C124.8,121.5,119.6,121.8,114.8,123.7
				L114.8,123.7z M127.9,100.9c-2.8-2-6.1-3.3-9.5-3.8c-5.1-0.8-10.3,0.1-14.8,2.7c2.8,2,6.1,3.3,9.5,3.8
				C118.1,104.4,123.4,103.4,127.9,100.9L127.9,100.9z M191.6,151.4l-10.1,26.4c1.4,4,2.9,8.1,4.3,12.2l7.6,13.2l15.3-38.2
				c1.2-3,4.2-5,7.4-5h1.2c0.2-0.7,0.4-1.4,0.6-2.1c1.2-3.6,3-7,5.3-10.1L232,136h-18C204.1,136,195.2,142.1,191.6,151.4
				L191.6,151.4z M176.3,250.4c-14.9,2.5-29.2-7.1-32.4-21.9l-18.2-83.3c-4.8-0.6-9.4-2-13.7-4.2v194.6c5.4-0.5,10.8-1.6,16-3.2V280
				h16v45.6c5.8-3.2,11.2-7.1,16-11.7v-50h16v29.5c2.2-4,4.1-8.2,5.6-12.5l7.8-22.4c-1-4-2.1-8-3.1-11.9
				C183.2,248.5,179.8,249.8,176.3,250.4z M139.2,42c-6,6.4-8.1,15.5-5.6,23.9C139.6,59.5,141.7,50.4,139.2,42z M218.6,64.9
				l-6.4-9.3C201.9,40.8,185.1,32,167.1,32h-0.2c-4.6,0-9.2,0.6-13.7,1.7c2.2,5.3,3.2,11.1,3,16.8l2.5-1.2c4-1.9,8.8-0.2,10.7,3.8
				c0,0,0,0.1,0,0.1c3.2,7,4.4,14.7,3.4,22.4c3.1,0,5.9,1.7,7.3,4.5c6.4,13.4,4.9,29.2-3.8,41.2c1.7,1.1,2.9,2.8,3.4,4.8l2.5,9.8
				c7.6-10,19.4-15.9,31.9-15.9h34v-12.6l-2.3-3.4H232c-4.4,0-8-3.6-8-8V83.3l-5.7-5.7c-2.4-2.4-3-6.2-1.5-9.2L218.6,64.9z M304,144
				V63.3C304,46,290,32,272.7,32H267l18.6,18.3c1.5,1.5,2.4,3.6,2.4,5.7v110.6C297.6,163.2,304,154.2,304,144z M245.8,37.9
				c-3.8,3.7-5.9,8.8-5.8,14.1c0,7.1-3.1,12.2-6.3,18.4l3.9,3.9c1.5,1.5,2.3,3.5,2.3,5.7v8h16c4.4,0,8,3.6,8,8v24h8V59.4l-23.8-23.4
				C247.3,36.5,246.6,37.2,245.8,37.9z M157.6,117.4c7.2-5,11.1-13.5,10.3-22.2C160.7,100.2,156.8,108.7,157.6,117.4L157.6,117.4z
				 M146.6,90.2c7.3-4.9,11.3-13.4,10.5-22.1C149.8,73,145.8,81.5,146.6,90.2z M159.5,225.1c1.4,6.4,7.6,10.6,14.1,9.6
				c6.7-1.1,11.3-7.5,10.2-14.2c-0.2-1.5-0.7-2.8-1.5-4.1L156.9,172c-2.2-3.8-0.9-8.7,3-10.9c0.1-0.1,0.3-0.1,0.4-0.2l10.3-5.1
				l-4.6-18.4l-17.2,3.4c-2.2,1.2-4.6,2.2-7,3L159.5,225.1z M400,104v-1.4c-3-1-5.7-2.7-8-4.8c-2.3,2.1-5,3.7-8,4.8v1.4
				c0,4.4,3.6,8,8,8S400,108.4,400,104z M359,273.7c0-0.1,0-0.2-0.1-0.3c-3-21.1-6.6-41.8-7.7-63.1l-2.3-44.5
				c-0.2-3.3,0.1-6.9-0.5-10.2c-2.1-11.4-12-19.7-23.6-19.6H320v8c0,6.8-1.7,13.5-5.1,19.4c1.7,1.1,3.4,2.2,5.1,3.3
				c9.9,7,12,29.2,15.9,55.9c0,0.1,0,0.1,0,0.2l8,55.8l6.7,33.4h21.6c-4.3-10.7-8.7-20.3-11.5-31C360,278.6,359.5,276.2,359,273.7z
				 M328,416c0,22.5,6,44.5,17.2,64H248V265c-0.2-22.2,1-44.4,3.6-66.4c0.8-6.5-6.2-9.6-10.5-12.8c-0.1-0.1-0.2-0.2-0.3-0.2
				c-7.3-5-10.4-14.1-7.7-22.5c0.7-2,1.7-3.9,2.9-5.6l13.9-18.6l22.1,14.8V176c0,4.4,3.6,8,8,8c8.8,0,17.3-2.9,24.3-8.3
				c2,1.1,3.9,2.3,5.7,3.6L296.6,213c-1.3,3.3-0.3,7,2.4,9.2c19.8,15.8,29,40.3,29,77L328,416z M256.5,230.7
				c0.1,0.3,2.8,7.7,8.2,19.8l14.6-6.5c-5.1-11.5-7.8-18.7-7.8-18.8L256.5,230.7z M254.1,301.4c0.1,0.6,2.9,15.7,11.2,37.4l14.9-5.7
				c-7.7-20.2-10.4-34.4-10.4-34.6L254.1,301.4z M309.7,458.3c-26.2-26.2-36.9-60.3-37-60.7l-15.3,4.7c0.5,1.5,11.9,38.2,41,67.3
				L309.7,458.3z M318.3,401.1c-12.5-16.2-23.1-33.7-31.5-52.4l-14.6,6.6c8.9,19.8,20.2,38.5,33.5,55.6L318.3,401.1z M318.7,315.6
				c-11.7-17.7-22.3-36.1-31.6-55.1l-14.4,7.1c9.6,19.7,20.6,38.7,32.7,56.9L318.7,315.6z M442.2,62.3c3.8,7.6,5.8,16,5.8,24.5
				v248.8c-5.4-0.5-10.8-1.6-16-3.2V280h-16v45.6c-5.8-3.2-11.2-7.1-16-11.7v-50h-16v29.5c-2.2-4-4.1-8.2-5.6-12.6l-3.7-10.6
				l-6.7-47.1l-3.5-68.9c0-0.3,0-0.6-0.1-0.9c-3.2-19.3-19.9-33.5-39.5-33.4H320V95.8l27.8-40.2C358.1,40.8,374.9,32,392.9,32h0.2
				C414,31.9,433,43.7,442.2,62.3z M392,128c13.2,0,24-10.8,24-24v-1.4c9.6-3.4,16-12.5,16-22.6v-8h-16v8c0,4.4-3.6,8-8,8
				s-8-3.6-8-8v-8h-16v8c0,4.4-3.6,8-8,8s-8-3.6-8-8v-8h-16v8c0,10.2,6.4,19.2,16,22.6v1.4C368,117.2,378.8,128,392,128z M444.8,220
				l-13.8-8c-2.2,3.8-7.1,5.1-10.9,2.9c-2.5-1.4-4-4.1-4-6.9v-1.4c9.6-3.4,16-12.5,16-22.6h-16c0,4.4-3.6,8-8,8s-8-3.6-8-8h-16
				c0,10.2,6.4,19.2,16,22.6v1.4c0,13.3,10.7,24,24,24C432.6,232,440.5,227.4,444.8,220z M208.8,477.3c0,1.5,1.2,2.7,2.7,2.7H232
				v-16l-21.6,10.8C209.4,475.3,208.8,476.2,208.8,477.3z"/>
		</g>
	</g>
</g>
</svg>